<?xml version="1.0" encoding="CP932"?>
<svg xmlns="http://www.w3.org/2000/svg" xmlns:xlink="http://www.w3.org/1999/xlink" width="504px" height="360px" viewBox="0 0 504 360" version="1.1">
  <metadata xmlns:gridsvg="http://www.stat.auckland.ac.nz/~paul/R/gridSVG/">
    <gridsvg:generator name="gridSVG" version="1.4-3" time="2015-06-07 12:39:51"/>
    <gridsvg:argument name="name" value="map1.kk2012.svg"/>
    <gridsvg:argument name="exportCoords" value="none"/>
    <gridsvg:argument name="exportMappings" value="file"/>
    <gridsvg:argument name="exportJS" value="none"/>
    <gridsvg:argument name="res" value="72"/>
    <gridsvg:argument name="prefix" value=""/>
    <gridsvg:argument name="addClasses" value="FALSE"/>
    <gridsvg:argument name="indent" value="TRUE"/>
    <gridsvg:argument name="htmlWrapper" value="TRUE"/>
    <gridsvg:argument name="usePaths" value="vpPaths"/>
    <gridsvg:argument name="uniqueNames" value="TRUE"/>
    <gridsvg:separator name="id.sep" value="."/>
    <gridsvg:separator name="gPath.sep" value="::"/>
    <gridsvg:separator name="vpPath.sep" value="::"/>
  </metadata>
  <script type="application/ecmascript" xlink:href="map1.kk2012.svg.mappings.js"/>
  <g transform="translate(0, 360) scale(1, -1)">
    <g id="gridSVG" fill="none" stroke="rgb(0,0,0)" stroke-dasharray="none" stroke-width="0.75" font-size="12" font-family="Helvetica, Arial, FreeSans, Liberation Sans, Nimbus Sans L, sans-serif" opacity="1" stroke-linecap="round" stroke-linejoin="round" stroke-miterlimit="10" stroke-opacity="1" fill-opacity="0" font-weight="normal" font-style="normal">
      <g id="layout.1">
        <g id="GRID.gTableParent.66.1">
          <defs>
            <clipPath id="layout::background.1-5-6-1.1.clipPath">
              <rect x="38.76" y="0" width="426.47" height="360" fill="none" stroke="none"/>
            </clipPath>
          </defs>
          <g id="layout::background.1-5-6-1.1" clip-path="url(#layout::background.1-5-6-1.1.clipPath)">
            <g id="background.1-5-6-1.1">
              <rect id="background.1-5-6-1.1.1" x="38.76" y="0" width="426.47" height="360" stroke-width="1.06" stroke="rgb(255,255,255)" fill="rgb(255,255,255)" stroke-dasharray="none" stroke-opacity="1" fill-opacity="1"/>
            </g>
          </g>
          <g id="layout::spacer.4-3-4-3.1"/>
          <defs>
            <clipPath id="layout::panel.3-4-3-4.1.clipPath">
              <rect x="88.33" y="37.28" width="362.51" height="308.32" fill="none" stroke="none"/>
            </clipPath>
          </defs>
          <g id="layout::panel.3-4-3-4.1" clip-path="url(#layout::panel.3-4-3-4.1.clipPath)">
            <g id="panel.3-4-3-4.1">
              <g id="grill.gTree.44.1">
                <g id="panel.background.rect.35.1">
                  <rect id="panel.background.rect.35.1.1" x="88.33" y="37.28" width="362.51" height="308.32" stroke-width="1.06" stroke="none" fill="rgb(229,229,229)" stroke-dasharray="none" stroke-opacity="0" fill-opacity="1"/>
                </g>
                <g id="panel.grid.minor.y.polyline.37.1">
                  <polyline id="panel.grid.minor.y.polyline.37.1.1" points="88.33,78.56 450.84,78.56" stroke-width="0.53" stroke="rgb(242,242,242)" stroke-dasharray="none" stroke-linecap="butt" stroke-opacity="1" fill="none"/>
                  <polyline id="panel.grid.minor.y.polyline.37.1.2" points="88.33,172.56 450.84,172.56" stroke-width="0.53" stroke="rgb(242,242,242)" stroke-dasharray="none" stroke-linecap="butt" stroke-opacity="1" fill="none"/>
                  <polyline id="panel.grid.minor.y.polyline.37.1.3" points="88.33,266.57 450.84,266.57" stroke-width="0.53" stroke="rgb(242,242,242)" stroke-dasharray="none" stroke-linecap="butt" stroke-opacity="1" fill="none"/>
                </g>
                <g id="panel.grid.minor.x.polyline.39.1">
                  <polyline id="panel.grid.minor.x.polyline.39.1.1" points="176.99,37.28 176.99,345.6" stroke-width="0.53" stroke="rgb(242,242,242)" stroke-dasharray="none" stroke-linecap="butt" stroke-opacity="1" fill="none"/>
                  <polyline id="panel.grid.minor.x.polyline.39.1.2" points="270.99,37.28 270.99,345.6" stroke-width="0.53" stroke="rgb(242,242,242)" stroke-dasharray="none" stroke-linecap="butt" stroke-opacity="1" fill="none"/>
                  <polyline id="panel.grid.minor.x.polyline.39.1.3" points="365,37.28 365,345.6" stroke-width="0.53" stroke="rgb(242,242,242)" stroke-dasharray="none" stroke-linecap="butt" stroke-opacity="1" fill="none"/>
                </g>
                <g id="panel.grid.major.y.polyline.41.1">
                  <polyline id="panel.grid.major.y.polyline.41.1.1" points="88.33,125.56 450.84,125.56" stroke-width="1.06" stroke="rgb(255,255,255)" stroke-dasharray="none" stroke-linecap="butt" stroke-opacity="1" fill="none"/>
                  <polyline id="panel.grid.major.y.polyline.41.1.2" points="88.33,219.57 450.84,219.57" stroke-width="1.06" stroke="rgb(255,255,255)" stroke-dasharray="none" stroke-linecap="butt" stroke-opacity="1" fill="none"/>
                  <polyline id="panel.grid.major.y.polyline.41.1.3" points="88.33,313.57 450.84,313.57" stroke-width="1.06" stroke="rgb(255,255,255)" stroke-dasharray="none" stroke-linecap="butt" stroke-opacity="1" fill="none"/>
                </g>
                <g id="panel.grid.major.x.polyline.43.1">
                  <polyline id="panel.grid.major.x.polyline.43.1.1" points="129.99,37.28 129.99,345.6" stroke-width="1.06" stroke="rgb(255,255,255)" stroke-dasharray="none" stroke-linecap="butt" stroke-opacity="1" fill="none"/>
                  <polyline id="panel.grid.major.x.polyline.43.1.2" points="223.99,37.28 223.99,345.6" stroke-width="1.06" stroke="rgb(255,255,255)" stroke-dasharray="none" stroke-linecap="butt" stroke-opacity="1" fill="none"/>
                  <polyline id="panel.grid.major.x.polyline.43.1.3" points="317.99,37.28 317.99,345.6" stroke-width="1.06" stroke="rgb(255,255,255)" stroke-dasharray="none" stroke-linecap="butt" stroke-opacity="1" fill="none"/>
                  <polyline id="panel.grid.major.x.polyline.43.1.4" points="412,37.28 412,345.6" stroke-width="1.06" stroke="rgb(255,255,255)" stroke-dasharray="none" stroke-linecap="butt" stroke-opacity="1" fill="none"/>
                </g>
              </g>
              <g id="geom_polygon.gTree.1">
                <g id="GRID.polygon.1">
                  <polygon id="GRID.polygon.1.1" points="378.8,277.62 384.59,277.35 388.84,273.6 390.71,273.8 389.7,275.52 404.46,278.13 401.93,274.46 397.93,274.23 401.96,273.75 407.15,278.37 406.1,279.23 414.09,285.33 419.88,283.02 417.17,280.53 415.03,281.52 412.93,279.77 418.68,277.62 422.2,281.15 430.81,278.21 428.26,276.06 434.36,275.72 433.35,271.78 430.27,269.64 428.8,266.47 432.56,263.88 432.31,259.28 425.11,258.38 424.75,260.18 421.77,258.77 421.48,255.06 419.23,252.35 422,247.94 414.09,241.96 415.58,243.83 412.8,242.83 415.15,244.84 412.18,244.04 414.01,240.19 419.55,241.36 423.01,238.44 426.87,237.92 424.63,234.44 416.15,233.25 415.23,231.41 416.67,231.19 413.82,228.76 415.62,224.97 417.82,224.78 416.93,223.31 411.7,222.56 409.12,226.44 406.19,224.61 407.33,223.29 406.53,222.02 399.93,219.5 401.73,214.42 405.39,214.7 404.61,213.87 413.96,212.04 413.45,210.21 415.11,209.75 416.23,211.58 414.72,212.97 416.41,211.63 411.72,194.72 406.33,196.09 406.31,198.55 408.65,199.51 408.45,201.31 406.14,200.44 407.49,205.42 403.09,206 402.05,200.8 400.81,203.99 399.18,202.64 399.63,193.43 395.18,188.66 396.72,187.63 395.85,186.68 397.26,185.75 401.34,190.16 410.33,189.79 405.82,173.52 402.21,173.78 401.11,177.11 399.55,177.22 399.75,172.06 395.51,168.75 396.79,167.1 393.64,166.17 394.26,164.13 393.5,165.82 391.58,165.52 390.13,169.32 383.43,171.72 378.78,176.5 380.4,179.81 376.71,176.4 372.88,176.63 371.83,181.42 370.52,180.63 367.26,182.75 362.62,189.31 345.61,190.6 342.81,194.44 339.21,195.03 332.97,203.32 333.9,206.9 332.4,208.58 333.77,209.34 332.52,210.07 333.77,212.22 332.15,215.62 338.32,217.88 349.1,228.22 356.66,242.27 357.24,244.97 355.83,244.68 361.22,255.56 369.22,259.13 368.33,260.15 371.83,262.41 372.69,261.5 376.58,264.36 377.17,262.86 378.56,263.64 376.36,265.27 376.29,270.16 377.51,268.13 377.93,270.2 379.59,269.26 377.91,273.01 375.57,273.07 376.27,277.03 378.8,277.62" stroke="rgb(255,255,255)" fill="rgb(51,51,51)" stroke-width="1.06" stroke-dasharray="none" stroke-opacity="0" fill-opacity="1"/>
                </g>
              </g>
              <g id="geom_polygon.gTree.2">
                <g id="GRID.polygon.2">
                  <polygon id="GRID.polygon.2.1" points="104.8,237.11 111.09,240.23 116.1,246.85 116.28,250.62 112.64,251.18 112.55,252.58 113.59,252.21 112.42,254.07 113.72,253.49 113.75,254.83 118.39,251.78 130.21,256.44 138.11,254.88 142.82,256.06 153.49,251.83 156.6,252.16 157.13,253.47 157.74,250.55 156.18,248.59 158.69,249.11 160.81,246.25 160.01,245.48 165.54,244.52 166.81,249.54 179.54,249.59 179.53,256.4 167.41,256.64 179.54,256.48 179.54,262.34 194.86,263.9 194.78,257.49 186.54,256.65 186.53,251.36 194.95,251.33 194.94,246.85 184.39,242.9 179.39,243.83 178.44,241.04 182.26,240.46 180.39,238.6 183.66,238.6 200.73,244.99 202.79,251.74 231.08,249.18 230.12,247.32 235.65,244.25 238.9,244.52 241.45,241.16 240.27,235.51 233.07,236.59 230.02,233.21 229.72,231.51 231.7,231.23 233.54,233.36 239.73,232.91 237.51,221.63 231.25,219.45 233.66,219.68 231.02,219.27 221.05,210.78 212.53,210.82 212.6,212.45 212.35,210.83 208.4,210.76 207.94,212.16 206.31,210.59 205.93,212.9 205.67,210.5 204.33,210.38 204.29,212.01 203.73,210.29 202.34,210.13 201.95,211.59 200.84,209.58 195.26,209.62 189.06,206.23 189.76,205.29 194.95,207.98 207.69,208.49 208.58,206.38 180.24,199.07 177.45,199.81 173.61,208.57 171.81,207.97 169.98,210.19 151.33,218.57 148.88,210.35 144.51,208.16 144.55,206.08 142.64,204.94 137.87,207.07 134.71,204.54 131.15,205.15 129.55,208.76 126.74,205.4 122.77,204.41 115.6,206.97 112.76,209.05 116.1,213.32 114.99,214.6 116.34,217.6 106.86,226.04 108.95,233.23 104.8,237.11" stroke="rgb(255,255,255)" fill="rgb(51,51,51)" stroke-width="1.06" stroke-dasharray="none" stroke-opacity="0" fill-opacity="1"/>
                  <polygon id="GRID.polygon.2.2" points="232.88,264.57 235.4,264.45 237.61,260.36 254.44,266.42 266.76,256.51 245.04,248.08 237.74,251.74 235.58,248.98 209.36,252.44 209.29,257.65 203.07,257.56 203.07,262.86 223.84,262.89 232.14,265.88 232.88,264.57" stroke="rgb(255,255,255)" fill="rgb(51,51,51)" stroke-width="1.06" stroke-dasharray="none" stroke-opacity="0" fill-opacity="1"/>
                  <polygon id="GRID.polygon.2.3" points="150.67,329.7 153.86,331.59 155.39,328.21 159.71,328.97 165.33,327.6 162.2,319.08 156.52,320.47 156.98,321.76 153.53,323.71 150.67,329.7" stroke="rgb(255,255,255)" fill="rgb(51,51,51)" stroke-width="1.06" stroke-dasharray="none" stroke-opacity="0" fill-opacity="1"/>
                </g>
              </g>
              <g id="geom_polygon.gTree.3">
                <g id="GRID.polygon.3">
                  <polygon id="GRID.polygon.3.1" points="245.77,236.25 247.62,238.97 266.04,245.73 269.07,246.19 270.05,244.58 268.7,243.91 270.35,244.49 269.31,246.23 275.78,247.26 277.94,246.42 276.93,246.06 278.23,242.49 281.21,242.01 269.35,237.65 270.7,234.92 273.87,236 270.75,234.79 271.43,233.58 286.56,238.86 289.26,236.55 270.24,228.61 269.29,224.68 271.86,224.3 269.96,219.24 271.4,216.37 267.78,213.84 264.9,209.28 262.14,195.53 265.47,194.35 258.79,195.98 255.5,191.47 247.64,191.02 246.93,193.81 248.61,196.49 244.71,198.34 245.32,203.49 243.98,205.97 237.81,207.73 237.44,204.9 234.44,203.96 230.46,205.29 229.76,212.49 239.15,217.03 238.84,219.31 243.66,222.04 242.58,226.03 245.54,222.97 246.4,225.81 244.13,228.97 245.77,236.25" stroke="rgb(255,255,255)" fill="rgb(51,51,51)" stroke-width="1.06" stroke-dasharray="none" stroke-opacity="0" fill-opacity="1"/>
                </g>
              </g>
              <g id="geom_polygon.gTree.4">
                <g id="GRID.polygon.4">
                  <polygon id="GRID.polygon.4.1" points="271.86,224.3 274.13,223.24 277.52,225.79 275.49,227.74 283.97,231.66 285.39,229.44 287.15,230.24 286.05,232.1 291.55,234.53 298.61,228.39 295.48,227.01 296.5,225.32 300.53,226.68 303.08,224.45 290.91,219 286.99,220.25 283.41,215.83 285.79,215.8 287.21,218.16 293.59,214.79 293.16,216.9 306.46,221.48 311.68,215.96 303.12,215.85 296.98,209.66 300.05,210.28 300.61,211.97 311,213.14 306.52,208.72 307.6,207.87 310.04,207.89 313.04,212.19 320.23,213.97 319.56,211.72 317.42,210.78 318.89,210.8 322.61,212.37 323.14,214.11 332.15,215.62 333.77,212.22 332.52,210.07 333.77,209.34 332.4,208.58 333.9,206.9 332.97,203.32 339.21,195.03 342.81,194.44 345.32,190.44 340.79,188.46 337.63,181.98 325.4,178.99 321.52,174.94 317.7,174.78 316.48,170.53 312.06,175.93 296.06,186.31 294.46,184.03 295.58,180.3 293.34,176.7 292.26,170.53 284.42,172.67 281.18,168.44 278.78,168.58 277.36,165.17 273.54,165.28 269.95,162.57 263.29,163.22 261.29,173.21 270.33,181.61 267.09,185.29 267.27,190.65 269.31,191.42 268.24,192.23 264.6,190.64 263.48,191.33 265.74,192.52 265.48,194.79 262.14,195.53 264.9,209.28 267.78,213.84 271.34,216.18 269.96,219.24 271.86,224.3" stroke="rgb(255,255,255)" fill="rgb(51,51,51)" stroke-width="1.06" stroke-dasharray="none" stroke-opacity="0" fill-opacity="1"/>
                  <polygon id="GRID.polygon.4.2" points="238.94,305.35 237.22,307.79 238.45,309.11 236.41,309.38 236.13,311.44 233.51,311.71 233.4,313.97 239.43,314.06 239.67,311.13 243.11,308.09 241.67,306.13 244.62,304.51 244.82,299.19 243.52,302.35 239.64,303.66 238.94,305.35" stroke="rgb(255,255,255)" fill="rgb(51,51,51)" stroke-width="1.06" stroke-dasharray="none" stroke-opacity="0" fill-opacity="1"/>
                  <polygon id="GRID.polygon.4.3" points="278.9,283.78 281.95,281.67 273.05,281.68 271.51,284.65 269.04,285.46 273.17,286.7 275.39,285.43 274.9,283.93 276.53,284.57 277.52,282.74 278.9,283.78" stroke="rgb(255,255,255)" fill="rgb(51,51,51)" stroke-width="1.06" stroke-dasharray="none" stroke-opacity="0" fill-opacity="1"/>
                </g>
              </g>
              <g id="geom_polygon.gTree.5">
                <g id="GRID.polygon.5">
                  <polygon id="GRID.polygon.5.1" points="390.78,167.32 389.45,164.78 390.82,162.33 393.22,163.48 392.08,160.73 390.32,160.61 389.79,157.9 374.35,161.47 371.15,153.61 380.57,134.45 393.18,136.72 394.39,135.53 374.71,116.91 372.11,116.87 368.04,107.55 349.72,102.86 343.3,106.68 335.79,101.84 333.42,101.99 332.72,99.87 334.5,96.37 329.17,91.69 330.61,84.86 326.79,79.24 327.43,77.51 324.31,74.86 321.38,78.98 321.68,80.9 320.12,81.57 315.36,70.22 313.01,68.27 312.67,63.66 310.26,64.86 308.08,71.47 302.04,70.56 301,72.94 287.76,63.8 283.07,65.76 273.48,64.28 271.16,62.79 268.55,55.8 265.91,54.5 259.8,55.78 249.32,53.94 243.64,51.3 242.38,53.17 243.67,55.52 237.12,57.97 234.01,63.16 229.29,64.14 227.35,72.67 229.2,77.13 226,79.45 226.28,88.43 223.35,92.74 225.02,93.94 226.6,99.46 226.22,100.78 224.05,100.34 223.45,103.75 225.2,106.54 223.27,112.19 224.04,117.14 225.94,118.51 224.36,119.69 225.18,124.88 228.22,129.21 225.38,136.76 228.25,141.87 232.94,144.85 231.58,148.16 241.32,152.38 247.66,150.65 251.52,156.76 255.48,159.9 262.68,163.77 269.95,162.57 273.54,165.28 277.36,165.17 278.78,168.58 281.18,168.44 284.42,172.67 292.26,170.53 293.34,176.7 295.58,180.3 294.46,184.03 296.06,186.31 312.06,175.93 316.48,170.53 316.51,173.95 321.52,174.94 325.4,178.99 337.63,181.98 340.79,188.46 344.34,189.01 345.38,190.76 361.82,189.62 367.26,182.75 370.52,180.63 371.83,181.42 372.88,176.63 376.71,176.4 380.4,179.81 378.78,176.5 383.43,171.72 390.13,169.32 390.78,167.32" stroke="rgb(255,255,255)" fill="rgb(51,51,51)" stroke-width="1.06" stroke-dasharray="none" stroke-opacity="0" fill-opacity="1"/>
                </g>
              </g>
              <g id="geom_polygon.gTree.6">
                <g id="GRID.polygon.6">
                  <polygon id="GRID.polygon.6.1" points="225.88,195.26 231.95,198.78 230.46,205.29 234.44,203.96 237.44,204.9 237.13,207.57 240.65,207.26 243.98,205.97 245.26,203.8 244.71,198.34 248.54,196.65 246.93,193.81 247.64,191.02 255.5,191.47 258.52,195.93 264.05,194.78 265.74,192.52 263.48,191.33 265.23,190.39 267.88,192.16 269.31,191.42 267.27,190.65 267.09,185.29 270.33,181.61 261.29,173.21 261.56,169.11 263.67,166.04 262.28,162.6 251.7,156.93 247.66,150.65 241.32,152.38 231.58,148.16 232.94,144.85 228.25,141.87 225.38,136.76 228.23,129.41 225.59,125.97 224.36,119.69 220.82,125.41 215.31,126.07 212.17,128.19 214.36,130.69 212.17,134.75 214.19,136.98 213.76,141.12 203.9,149.05 207.29,155.41 214.72,163.13 208.71,166.77 210.15,169.75 209.12,171.45 211.98,176.5 209.43,182.23 206.27,183.49 204.43,188.63 207.28,188.27 206.32,191.2 207.87,193.71 207.3,199.06 209.72,203.2 221.58,206.02 227.13,211.61 228.44,202.31 223.67,195.23 225.88,195.26" stroke="rgb(255,255,255)" fill="rgb(51,51,51)" stroke-width="1.06" stroke-dasharray="none" stroke-opacity="0" fill-opacity="1"/>
                </g>
              </g>
              <g id="geom_polygon.gTree.7">
                <g id="GRID.polygon.7">
                  <polygon id="GRID.polygon.7.1" points="171.81,207.97 175.99,198.84 174.77,197.22 168.71,195.99 170.08,194.75 174.89,196.12 177.33,195.06 198.47,200.36 196.64,195.11 201.03,201.35 207.39,202.63 204.78,198.03 207.94,198.64 207.75,192.96 206.32,191.2 207.63,189.37 207.28,188.27 204.43,188.63 204.49,187.56 206.27,183.49 211.01,180.13 211.98,176.5 209.12,171.45 210.15,169.75 208.71,166.77 214.72,163.13 207.29,155.41 203.9,149.05 213.76,141.12 214.19,136.98 212.17,134.75 214.36,130.69 212.33,127.97 215.31,126.07 220.82,125.41 225.94,118.59 224.01,116.96 223.27,112.19 225.2,106.44 223.45,103.75 219.15,107.03 215.77,105.85 213.28,106.62 209.37,111.73 198.29,112.87 194.83,111.95 192.91,109.55 194.03,104.2 192.83,102.64 186.95,100.71 187.15,98.88 183.93,96.87 179.96,96.08 171.48,99.42 165.84,97.89 153.4,102.41 149.43,101.29 142.87,114.41 133.34,126.75 136.29,129.7 145.37,132.12 142.18,135.96 150.42,131.75 148.4,127.33 153.49,128.49 159.23,137.38 166.12,138.51 171.04,142.27 167.16,146.31 165.91,145.37 161.76,146.69 161.4,148.65 159.17,148.41 159.19,150.05 157.94,149.33 154.93,157.57 152.04,156.02 147.34,157.95 149.72,159.4 147.53,167.37 142.32,169.46 142.25,171.55 139.52,173.51 133.98,174.7 134.97,178.7 130.43,179.66 129.12,184.13 127.22,184.36 125.61,186.09 126.42,187.92 123.7,189.26 126.08,195.19 123.85,195.44 122.79,199.17 118.49,199.11 118.35,201.59 113.39,208.35 122.68,204.42 126.74,205.4 129.26,208.78 131.15,205.15 134.71,204.54 137.87,207.07 142.64,204.94 144.55,206.08 144.51,208.16 148.88,210.35 151.33,218.57 169.98,210.19 171.81,207.97" stroke="rgb(255,255,255)" fill="rgb(51,51,51)" stroke-width="1.06" stroke-dasharray="none" stroke-opacity="0" fill-opacity="1"/>
                </g>
              </g>
            </g>
          </g>
          <g id="layout::axis-l.3-3-3-3.1">
            <g id="layout::axis-l.3-3-3-3::GRID.VP.2.1">
              <g id="axis-l.3-3-3-3.1">
                <g id="layout::axis-l.3-3-3-3::GRID.VP.2::axis.1">
                  <g id="GRID.gTableParent.78.1">
                    <g id="layout::axis-l.3-3-3-3::GRID.VP.2::axis::axis.1-1-1-1.1">
                      <g id="axis.1-1-1-1.1">
                        <g id="axis.1-1-1-1.1.1" transform="translate(81.24, 125.56)" stroke-width="0.1">
                          <g id="axis.1-1-1-1.1.1.scale" transform="scale(1, -1)">
                            <text x="0" y="0" id="axis.1-1-1-1.1.1.text" text-anchor="end" font-size="9.6" stroke="rgb(127,127,127)" font-family="Helvetica, Arial, FreeSans, Liberation Sans, Nimbus Sans L, sans-serif" fill="rgb(127,127,127)" stroke-opacity="1" fill-opacity="1" font-weight="normal" font-style="normal">
                              <tspan id="axis.1-1-1-1.1.1.tspan.1" dy="3.59" x="0">33.8</tspan>
                            </text>
                          </g>
                        </g>
                        <g id="axis.1-1-1-1.1.2" transform="translate(81.24, 219.57)" stroke-width="0.1">
                          <g id="axis.1-1-1-1.1.2.scale" transform="scale(1, -1)">
                            <text x="0" y="0" id="axis.1-1-1-1.1.2.text" text-anchor="end" font-size="9.6" stroke="rgb(127,127,127)" font-family="Helvetica, Arial, FreeSans, Liberation Sans, Nimbus Sans L, sans-serif" fill="rgb(127,127,127)" stroke-opacity="1" fill-opacity="1" font-weight="normal" font-style="normal">
                              <tspan id="axis.1-1-1-1.1.2.tspan.1" dy="3.59" x="0">33.9</tspan>
                            </text>
                          </g>
                        </g>
                        <g id="axis.1-1-1-1.1.3" transform="translate(81.24, 313.57)" stroke-width="0.1">
                          <g id="axis.1-1-1-1.1.3.scale" transform="scale(1, -1)">
                            <text x="0" y="0" id="axis.1-1-1-1.1.3.text" text-anchor="end" font-size="9.6" stroke="rgb(127,127,127)" font-family="Helvetica, Arial, FreeSans, Liberation Sans, Nimbus Sans L, sans-serif" fill="rgb(127,127,127)" stroke-opacity="1" fill-opacity="1" font-weight="normal" font-style="normal">
                              <tspan id="axis.1-1-1-1.1.3.tspan.1" dy="3.59" x="0">34.0</tspan>
                            </text>
                          </g>
                        </g>
                      </g>
                    </g>
                    <g id="layout::axis-l.3-3-3-3::GRID.VP.2::axis::axis.1-2-1-2.1">
                      <g id="axis.1-2-1-2.1">
                        <polyline id="axis.1-2-1-2.1.1" points="84.07,125.56 88.33,125.56" stroke-width="1.06" stroke="rgb(127,127,127)" stroke-dasharray="none" stroke-linecap="butt" stroke-opacity="1" fill="none"/>
                        <polyline id="axis.1-2-1-2.1.2" points="84.07,219.57 88.33,219.57" stroke-width="1.06" stroke="rgb(127,127,127)" stroke-dasharray="none" stroke-linecap="butt" stroke-opacity="1" fill="none"/>
                        <polyline id="axis.1-2-1-2.1.3" points="84.07,313.57 88.33,313.57" stroke-width="1.06" stroke="rgb(127,127,127)" stroke-dasharray="none" stroke-linecap="butt" stroke-opacity="1" fill="none"/>
                      </g>
                    </g>
                  </g>
                </g>
              </g>
            </g>
          </g>
          <g id="layout::axis-b.4-4-4-4.1">
            <g id="layout::axis-b.4-4-4-4::GRID.VP.1.1">
              <g id="axis-b.4-4-4-4.1">
                <g id="layout::axis-b.4-4-4-4::GRID.VP.1::axis.1">
                  <g id="GRID.gTableParent.83.1">
                    <g id="layout::axis-b.4-4-4-4::GRID.VP.1::axis::axis.1-1-1-1.1">
                      <g id="axis.1-1-1-1.2">
                        <polyline id="axis.1-1-1-1.2.1" points="129.99,33.03 129.99,37.28" stroke-width="1.06" stroke="rgb(127,127,127)" stroke-dasharray="none" stroke-linecap="butt" stroke-opacity="1" fill="none"/>
                        <polyline id="axis.1-1-1-1.2.2" points="223.99,33.03 223.99,37.28" stroke-width="1.06" stroke="rgb(127,127,127)" stroke-dasharray="none" stroke-linecap="butt" stroke-opacity="1" fill="none"/>
                        <polyline id="axis.1-1-1-1.2.3" points="317.99,33.03 317.99,37.28" stroke-width="1.06" stroke="rgb(127,127,127)" stroke-dasharray="none" stroke-linecap="butt" stroke-opacity="1" fill="none"/>
                        <polyline id="axis.1-1-1-1.2.4" points="412,33.03 412,37.28" stroke-width="1.06" stroke="rgb(127,127,127)" stroke-dasharray="none" stroke-linecap="butt" stroke-opacity="1" fill="none"/>
                      </g>
                    </g>
                    <g id="layout::axis-b.4-4-4-4::GRID.VP.1::axis::axis.2-1-2-1.1">
                      <g id="axis.2-1-2-1.1">
                        <g id="axis.2-1-2-1.1.1" transform="translate(129.99, 30.2)" stroke-width="0.1">
                          <g id="axis.2-1-2-1.1.1.scale" transform="scale(1, -1)">
                            <text x="0" y="0" id="axis.2-1-2-1.1.1.text" text-anchor="middle" font-size="9.6" stroke="rgb(127,127,127)" font-family="Helvetica, Arial, FreeSans, Liberation Sans, Nimbus Sans L, sans-serif" fill="rgb(127,127,127)" stroke-opacity="1" fill-opacity="1" font-weight="normal" font-style="normal">
                              <tspan id="axis.2-1-2-1.1.1.tspan.1" dy="7.18" x="0">130.7</tspan>
                            </text>
                          </g>
                        </g>
                        <g id="axis.2-1-2-1.1.2" transform="translate(223.99, 30.2)" stroke-width="0.1">
                          <g id="axis.2-1-2-1.1.2.scale" transform="scale(1, -1)">
                            <text x="0" y="0" id="axis.2-1-2-1.1.2.text" text-anchor="middle" font-size="9.6" stroke="rgb(127,127,127)" font-family="Helvetica, Arial, FreeSans, Liberation Sans, Nimbus Sans L, sans-serif" fill="rgb(127,127,127)" stroke-opacity="1" fill-opacity="1" font-weight="normal" font-style="normal">
                              <tspan id="axis.2-1-2-1.1.2.tspan.1" dy="7.18" x="0">130.8</tspan>
                            </text>
                          </g>
                        </g>
                        <g id="axis.2-1-2-1.1.3" transform="translate(317.99, 30.2)" stroke-width="0.1">
                          <g id="axis.2-1-2-1.1.3.scale" transform="scale(1, -1)">
                            <text x="0" y="0" id="axis.2-1-2-1.1.3.text" text-anchor="middle" font-size="9.6" stroke="rgb(127,127,127)" font-family="Helvetica, Arial, FreeSans, Liberation Sans, Nimbus Sans L, sans-serif" fill="rgb(127,127,127)" stroke-opacity="1" fill-opacity="1" font-weight="normal" font-style="normal">
                              <tspan id="axis.2-1-2-1.1.3.tspan.1" dy="7.18" x="0">130.9</tspan>
                            </text>
                          </g>
                        </g>
                        <g id="axis.2-1-2-1.1.4" transform="translate(412, 30.2)" stroke-width="0.1">
                          <g id="axis.2-1-2-1.1.4.scale" transform="scale(1, -1)">
                            <text x="0" y="0" id="axis.2-1-2-1.1.4.text" text-anchor="middle" font-size="9.6" stroke="rgb(127,127,127)" font-family="Helvetica, Arial, FreeSans, Liberation Sans, Nimbus Sans L, sans-serif" fill="rgb(127,127,127)" stroke-opacity="1" fill-opacity="1" font-weight="normal" font-style="normal">
                              <tspan id="axis.2-1-2-1.1.4.tspan.1" dy="7.18" x="0">131.0</tspan>
                            </text>
                          </g>
                        </g>
                      </g>
                    </g>
                  </g>
                </g>
              </g>
            </g>
          </g>
          <g id="layout::xlab.5-4-5-4.1">
            <g id="xlab.5-4-5-4.1">
              <g id="xlab.5-4-5-4.1.1" transform="translate(269.58, 15.11)" stroke-width="0.1">
                <g id="xlab.5-4-5-4.1.1.scale" transform="scale(1, -1)">
                  <text x="0" y="0" id="xlab.5-4-5-4.1.1.text" text-anchor="middle" font-size="12" stroke="rgb(0,0,0)" font-family="Helvetica, Arial, FreeSans, Liberation Sans, Nimbus Sans L, sans-serif" fill="rgb(0,0,0)" stroke-opacity="1" fill-opacity="1" font-weight="normal" font-style="normal">
                    <tspan id="xlab.5-4-5-4.1.1.tspan.1" dy="4.31" x="0">long</tspan>
                  </text>
                </g>
              </g>
            </g>
          </g>
          <g id="layout::ylab.3-2-3-2.1">
            <g id="ylab.3-2-3-2.1">
              <g id="ylab.3-2-3-2.1.1" transform="translate(53.87, 191.44)" stroke-width="0.1">
                <g id="ylab.3-2-3-2.1.1.scale" transform="scale(1, -1)">
                  <text x="0" y="0" id="ylab.3-2-3-2.1.1.text" transform="rotate(-90)" text-anchor="middle" font-size="12" stroke="rgb(0,0,0)" font-family="Helvetica, Arial, FreeSans, Liberation Sans, Nimbus Sans L, sans-serif" fill="rgb(0,0,0)" stroke-opacity="1" fill-opacity="1" font-weight="normal" font-style="normal">
                    <tspan id="ylab.3-2-3-2.1.1.tspan.1" dy="4.31" x="0">lat</tspan>
                  </text>
                </g>
              </g>
            </g>
          </g>
          <g id="layout::title.2-4-2-4.1">
            <g id="title.2-4-2-4.1">
              <g id="title.2-4-2-4.1.1" transform="translate(269.58, 345.6)" stroke-width="0.1">
                <g id="title.2-4-2-4.1.1.scale" transform="scale(1, -1)">
                  <text x="0" y="0" id="title.2-4-2-4.1.1.text" text-anchor="middle" font-size="14.4" stroke="rgb(0,0,0)" font-family="Helvetica, Arial, FreeSans, Liberation Sans, Nimbus Sans L, sans-serif" fill="rgb(0,0,0)" stroke-opacity="1" fill-opacity="1" font-weight="normal" font-style="normal">
                    <tspan id="title.2-4-2-4.1.1.tspan.1" dy="5.03" x="0"> </tspan>
                  </text>
                </g>
              </g>
            </g>
          </g>
        </g>
      </g>
      <script type="application/ecmascript" id="GRID.script.grob.73"><![CDATA[
var polnum = [1,2,3,4,5,6,7];
]]></script>
      <script type="application/ecmascript" id="GRID.script.grob.74" xlink:href="map1.kk2012.js"/>
      <script type="application/ecmascript" id="GRID.script.grob.75"><![CDATA[
var winname= 'map1';
]]></script>
      <script type="application/ecmascript" id="GRID.script.grob.76"><![CDATA[
var dtom = {"1":1,"2":2,"3":3,"4":4,"5":5,"6":6,"7":7};
]]></script>
      <script type="application/ecmascript" id="GRID.script.grob.77"><![CDATA[
var mtod = {"1":1,"2":2,"3":3,"4":4,"5":5,"6":6,"7":7};
]]></script>
    </g>
  </g>
</svg>